<?xml version="1.0" encoding="UTF-8"?>
<svg width="1400px" height="300px" viewBox="0 0 1400 300" version="1.1" xmlns="http://www.w3.org/2000/svg" xmlns:xlink="http://www.w3.org/1999/xlink">
    <!-- Generator: Sketch 49.2 (51160) - http://www.bohemiancoding.com/sketch -->
    <title>shedding/logo</title>
    <desc>Created with Sketch.</desc>
    <defs>
        <polygon id="path-1" points="0 134 1202.15649 134 1202.15649 0.142918919 0 0.142918919"></polygon>
    </defs>
    <g id="shedding/logo" stroke="none" stroke-width="1" fill="none" fill-rule="evenodd">
        <g id="Page-1" transform="translate(98.000000, 84.000000)">
            <polygon id="Fill-1" fill="#231F20" points="590 60 584.742415 60 584.742415 42.0888399 557.253913 42.0888399 557.253913 60 552 60 552 20 557.253913 20 557.253913 36.835536 584.742415 36.835536 584.742415 20 590 20"></polygon>
            <g id="Group-95">
                <path d="M646.008582,40.1401514 C646.008582,31.6309622 638.672043,24.1325838 627.151067,24.1325838 C615.633765,24.1325838 608.289878,31.6309622 608.289878,40.1401514 C608.289878,48.6419892 615.633765,56.1477189 627.151067,56.1477189 C638.672043,56.1477189 646.008582,48.6419892 646.008582,40.1401514 M627.151067,61.3965838 C613.473582,61.3965838 603.04372,52.8984216 603.04372,40.1401514 C603.04372,27.3818811 613.473582,18.8726919 627.151067,18.8726919 C640.835899,18.8726919 651.265762,27.3818811 651.265762,40.1401514 C651.265762,52.8984216 640.835899,61.3965838 627.151067,61.3965838" id="Fill-2" fill="#231F20"></path>
                <path d="M702.722569,44.781427 C702.722569,57.6132108 693.527096,61.3991568 683.409505,61.3991568 C673.284566,61.3991568 664.074398,57.6132108 664.074398,44.781427 L664.074398,20.1176432 L669.331578,20.1176432 L669.331578,44.781427 C669.331578,51.6622919 672.96862,56.1502919 683.409505,56.1502919 C693.828346,56.1502919 697.465389,51.5924541 697.465389,44.781427 L697.465389,20.1176432 L702.722569,20.1176432 L702.722569,44.781427 Z" id="Fill-4" fill="#231F20"></path>
                <path d="M742.667951,36.8989405 C750.327784,37.1194811 758.354994,40.5268324 758.354994,48.6390486 C758.354994,55.3728865 753.568058,61.3973189 738.872936,61.3973189 C725.59222,61.3973189 718.244659,56.3689946 715.074186,54.2848865 L717.627463,49.4881297 C720.717113,51.7339676 726.82661,56.1484541 738.483515,56.1484541 C748.623149,56.1484541 753.105162,53.1270486 753.105162,48.8081297 C753.105162,43.9268324 748.307204,42.2948324 743.825192,42.1514811 L731.852341,41.8464 C727.05071,41.7618595 718.086686,39.3689946 718.086686,30.705427 C718.086686,23.9017514 724.50478,18.873427 735.401213,18.873427 C747.767159,18.873427 754.644476,23.5158054 756.033165,24.4457514 L753.63786,29.1653189 C748.457829,26.1475892 742.440177,24.1296432 736.477631,24.1296432 C726.591488,24.1296432 723.340192,27.2245622 723.340192,30.6245622 C723.340192,35.1125622 727.29318,36.5056432 731.536396,36.5865081 L742.667951,36.8989405 Z" id="Fill-6" fill="#231F20"></path>
                <polygon id="Fill-8" fill="#231F20" points="807.880861 60.1663351 771.940267 60.1663351 771.940267 20.116173 807.021197 20.116173 807.021197 25.3760649 777.193773 25.3760649 777.193773 37.0463351 794.273178 37.0463351 794.273178 42.2952 777.193773 42.2952 777.193773 54.9027676 807.880861 54.9027676"></polygon>
                <path d="M878.967412,40.1401514 C878.967412,31.6309622 871.630872,24.1325838 860.109896,24.1325838 C848.592595,24.1325838 841.245034,31.6309622 841.245034,40.1401514 C841.245034,48.6419892 848.592595,56.1477189 860.109896,56.1477189 C871.630872,56.1477189 878.967412,48.6419892 878.967412,40.1401514 M860.109896,61.3965838 C846.436085,61.3965838 836.002549,52.8984216 836.002549,40.1401514 C836.002549,27.3818811 846.436085,18.8726919 860.109896,18.8726919 C873.783707,18.8726919 884.224591,27.3818811 884.224591,40.1401514 C884.224591,52.8984216 873.783707,61.3965838 860.109896,61.3965838" id="Fill-10" fill="#231F20"></path>
                <polygon id="Fill-12" fill="#231F20" points="902.606352 60.1663351 897.334477 60.1663351 897.334477 20.116173 931.890056 20.116173 931.890056 25.3760649 902.606352 25.3760649 902.606352 36.730227 920.685026 36.730227 920.685026 41.9937946 902.606352 41.9937946"></polygon>
                <polygon id="Fill-14" fill="#231F20" points="979.020252 60.1663351 973.763072 60.1663351 973.763072 25.3760649 957.679261 25.3760649 957.679261 20.116173 995.096715 20.116173 995.096715 25.3760649 979.020252 25.3760649"></polygon>
                <path d="M1044.85072,40.1401514 C1044.85072,31.6309622 1037.50316,24.1325838 1025.98954,24.1325838 C1014.47958,24.1325838 1007.13202,31.6309622 1007.13202,40.1401514 C1007.13202,48.6419892 1014.47958,56.1477189 1025.98954,56.1477189 C1037.50316,56.1477189 1044.85072,48.6419892 1044.85072,40.1401514 M1025.98954,61.3965838 C1012.3194,61.3965838 1001.88954,52.8984216 1001.88954,40.1401514 C1001.88954,27.3818811 1012.3194,18.8726919 1025.98954,18.8726919 C1039.66702,18.8726919 1050.11158,27.3818811 1050.11158,40.1401514 C1050.11158,52.8984216 1039.66702,61.3965838 1025.98954,61.3965838" id="Fill-16" fill="#231F20"></path>
                <path d="M1085.56723,54.9038703 C1094.29614,54.9038703 1099.86559,48.8794378 1099.86559,40.1386811 C1099.86559,31.3979243 1094.29614,25.3771676 1085.71418,25.3771676 L1068.407,25.3771676 L1068.407,54.9038703 L1085.56723,54.9038703 Z M1085.56723,20.1172757 C1098.5467,20.1172757 1105.12277,29.236627 1105.12277,40.1386811 C1105.12277,51.0333838 1098.5467,60.1674378 1085.56723,60.1674378 L1063.14615,60.1674378 L1063.14615,20.1172757 L1085.56723,20.1172757 Z" id="Fill-18" fill="#231F20"></path>
                <path d="M1136.40097,25.3764324 L1125.59638,44.9383784 L1147.2129,44.9383784 L1136.40097,25.3764324 Z M1161.21001,60.1667027 L1155.96385,60.1667027 L1150.16295,50.1872432 L1122.57286,50.1872432 L1116.77196,60.1667027 L1111.51845,60.1667027 L1134.15629,20.1165405 L1138.64565,20.1165405 L1161.21001,60.1667027 Z" id="Fill-20" fill="#231F20"></path>
                <polygon id="Fill-22" fill="#231F20" points="1183.91985 60.1663351 1178.66267 60.1663351 1178.66267 40.2993081 1160.51419 20.116173 1167.37681 20.116173 1181.29677 35.4952 1195.2057 20.116173 1202.15649 20.116173 1183.91985 40.2993081"></polygon>
                <path d="M571.578892,101.994789 C570.671468,103.222465 569.499532,104.218573 568.055736,104.983114 C566.608267,105.747654 564.874242,106.1336 562.849989,106.1336 C561.10127,106.1336 559.492154,105.839546 558.018968,105.244086 C556.538434,104.652303 555.27098,103.8216 554.20191,102.755654 C553.13284,101.686032 552.298892,100.414249 551.696392,98.936627 C551.093892,97.4626811 550.792642,95.8380324 550.792642,94.0700324 C550.792642,92.2763027 551.097566,90.6443027 551.711087,89.1703568 C552.328282,87.6890595 553.176925,86.4319784 554.264364,85.3844108 C555.355477,84.3368432 556.644974,83.5245189 558.129181,82.9400865 C559.617062,82.3593297 561.233526,82.0689514 562.978572,82.0689514 C563.753739,82.0689514 564.539928,82.1461405 565.340812,82.2968432 C566.138023,82.4475459 566.902169,82.6717622 567.633252,82.9731676 C568.368008,83.274573 569.036636,83.6494919 569.639136,84.090573 C570.241636,84.5316541 570.755965,85.0462486 571.193145,85.6270054 L568.669258,87.5677622 C568.107169,86.7921946 567.317306,86.1489514 566.292322,85.6453838 C565.267337,85.1381405 564.161529,84.8845189 562.978572,84.8845189 C561.641316,84.8845189 560.439989,85.1234378 559.374593,85.6123027 C558.309197,86.0974919 557.398099,86.7554378 556.644974,87.6008432 C555.888175,88.4388973 555.304044,89.416627 554.896255,90.5266811 C554.488465,91.6404108 554.282733,92.8203027 554.282733,94.0700324 C554.282733,95.3601946 554.481117,96.5694919 554.877886,97.690573 C555.278328,98.8153297 555.851437,99.7893838 556.593541,100.620086 C557.335645,101.450789 558.243069,102.101384 559.308465,102.575546 C560.373861,103.049708 561.564166,103.288627 562.883053,103.288627 C564.17255,103.288627 565.351834,103.027654 566.406209,102.513059 C567.460584,101.994789 568.334944,101.241276 569.025614,100.245168 L571.578892,101.994789 Z" id="Fill-24" fill="#231F20"></path>
                <path d="M597.119381,94.0692973 C597.119381,92.8195676 596.913649,91.6396757 596.50586,90.5259459 C596.094396,89.4158919 595.513939,88.4418378 594.75714,87.6001081 C594.004015,86.7583784 593.092918,86.0967568 592.023848,85.6115676 C590.958451,85.1227027 589.757125,84.8837838 588.423543,84.8837838 C587.104655,84.8837838 585.914351,85.1227027 584.848954,85.6115676 C583.783558,86.0967568 582.876134,86.7583784 582.13403,87.6001081 C581.391927,88.4418378 580.815143,89.4158919 580.40368,90.5259459 C579.99589,91.6396757 579.790159,92.8195676 579.790159,94.0692973 C579.790159,95.3447568 579.99589,96.5393514 580.40368,97.6604324 C580.815143,98.7815135 581.395601,99.7592432 582.152399,100.58627 C582.905524,101.416973 583.809274,102.071243 584.867323,102.545405 C585.921698,103.019568 587.104655,103.254811 588.423543,103.254811 C589.735082,103.254811 590.932735,103.019568 592.009152,102.545405 C593.08557,102.071243 594.004015,101.416973 594.75714,100.58627 C595.513939,99.7592432 596.094396,98.7815135 596.50586,97.6604324 C596.913649,96.5393514 597.119381,95.3447568 597.119381,94.0692973 M600.576409,94.0692973 C600.576409,95.8372973 600.267811,97.4619459 599.65429,98.9358919 C599.040768,100.417189 598.195799,101.685297 597.119381,102.754919 C596.03929,103.820865 594.75714,104.651568 593.269259,105.243351 C591.785052,105.838811 590.164915,106.132865 588.423543,106.132865 C586.674823,106.132865 585.065707,105.838811 583.588848,105.243351 C582.111988,104.651568 580.833512,103.820865 579.757095,102.754919 C578.677003,101.685297 577.839381,100.417189 577.236881,98.9358919 C576.634381,97.4619459 576.333131,95.8372973 576.333131,94.0692973 C576.333131,92.2792432 576.634381,90.6435676 577.236881,89.1696216 C577.839381,87.692 578.677003,86.4312432 579.757095,85.3873514 C580.833512,84.3397838 582.111988,83.5237838 583.588848,82.943027 C585.065707,82.3585946 586.674823,82.0682162 588.423543,82.0682162 C590.164915,82.0682162 591.785052,82.3585946 593.269259,82.943027 C594.75714,83.5237838 596.03929,84.3397838 597.119381,85.3873514 C598.195799,86.4312432 599.040768,87.692 599.65429,89.1696216 C600.267811,90.6435676 600.576409,92.2792432 600.576409,94.0692973" id="Fill-26" fill="#231F20"></path>
                <polygon id="Fill-28" fill="#231F20" points="611.179306 102.705665 621.39609 102.705665 621.39609 105.550638 607.979444 105.550638 607.979444 82.6511784 611.179306 82.6511784"></polygon>
                <polygon id="Fill-30" fill="#231F20" points="630.739616 102.705665 640.956399 102.705665 640.956399 105.550638 627.539753 105.550638 627.539753 82.6511784 630.739616 82.6511784"></polygon>
                <path d="M651.461942,97.1094486 L660.029198,97.1094486 L655.763939,86.3691243 L651.461942,97.1094486 Z M648.034305,105.552476 L644.481759,105.552476 L654.40464,82.6493405 L657.317948,82.6493405 L667.145311,105.552476 L663.522963,105.552476 L661.193787,99.9250162 L650.330418,99.9250162 L648.034305,105.552476 Z" id="Fill-32" fill="#231F20"></path>
                <path d="M676.324619,102.835049 L680.332713,102.835049 C681.001341,102.835049 681.673643,102.776238 682.356966,102.654941 C683.032942,102.540995 683.646463,102.327805 684.19753,102.0264 C684.744924,101.724995 685.189451,101.32067 685.523765,100.813427 C685.858079,100.309859 686.023399,99.6666162 686.023399,98.8910486 C686.023399,97.5310486 685.560503,96.5496432 684.63471,95.9468324 C683.708918,95.3440216 682.371662,95.0389405 680.626616,95.0389405 L676.324619,95.0389405 L676.324619,102.835049 Z M676.324619,92.3226162 L680.498034,92.3226162 C681.100534,92.3226162 681.673643,92.2527784 682.22471,92.1131027 C682.775777,91.973427 683.253369,91.7565622 683.664832,91.4661838 C684.072622,91.1758054 684.395915,90.8082378 684.63471,90.3634811 C684.869832,89.9224 684.987393,89.389427 684.987393,88.7645622 C684.987393,87.5368865 684.535518,86.6584 683.631768,86.1291027 C682.724345,85.6034811 681.508323,85.3351568 679.976357,85.3351568 L676.324619,85.3351568 L676.324619,92.3226162 Z M673.124756,82.6519135 L681.012363,82.6519135 C681.875701,82.6519135 682.735366,82.7474811 683.598704,82.9422919 C684.462043,83.1371027 685.233537,83.4605622 685.909512,83.9163459 C686.589162,84.3684541 687.136555,84.9602378 687.55904,85.6916973 C687.981524,86.4231568 688.187256,87.3420757 688.187256,88.4411027 C688.187256,89.7165622 687.823552,90.7825081 687.09247,91.6426162 C686.357713,92.5064 685.387835,93.1018595 684.182835,93.4216432 L684.182835,93.4878054 C684.913918,93.5723459 685.589893,93.7598054 686.214436,94.0538595 C686.842652,94.3442378 687.382698,94.7265081 687.834573,95.2006703 C688.286448,95.6785081 688.639131,96.2372108 688.885274,96.8841297 C689.131418,97.5310486 689.26,98.2551568 689.26,99.0527784 C689.26,100.151805 689.028552,101.111157 688.576677,101.930832 C688.124802,102.750508 687.51128,103.423157 686.736113,103.952454 C685.957271,104.478076 685.049848,104.878724 684.00282,105.147049 C682.959466,105.419049 681.842637,105.551373 680.65968,105.551373 L673.124756,105.551373 L673.124756,82.6519135 Z" id="Fill-34" fill="#231F20"></path>
                <path d="M716.542229,94.0692973 C716.542229,92.8195676 716.336497,91.6396757 715.928707,90.5259459 C715.517244,89.4158919 714.936787,88.4418378 714.179988,87.6001081 C713.426863,86.7583784 712.515765,86.0967568 711.446695,85.6115676 C710.381299,85.1227027 709.179973,84.8837838 707.84639,84.8837838 C706.527503,84.8837838 705.337198,85.1227027 704.271802,85.6115676 C703.206405,86.0967568 702.298982,86.7583784 701.556878,87.6001081 C700.814774,88.4418378 700.237991,89.4158919 699.826527,90.5259459 C699.418738,91.6396757 699.213006,92.8195676 699.213006,94.0692973 C699.213006,95.3447568 699.418738,96.5393514 699.826527,97.6604324 C700.237991,98.7815135 700.818448,99.7592432 701.575247,100.58627 C702.328372,101.416973 703.232122,102.071243 704.290171,102.545405 C705.344546,103.019568 706.527503,103.254811 707.84639,103.254811 C709.15793,103.254811 710.355582,103.019568 711.432,102.545405 C712.508418,102.071243 713.426863,101.416973 714.179988,100.58627 C714.936787,99.7592432 715.517244,98.7815135 715.928707,97.6604324 C716.336497,96.5393514 716.542229,95.3447568 716.542229,94.0692973 M719.999256,94.0692973 C719.999256,95.8372973 719.690659,97.4619459 719.077137,98.9358919 C718.463616,100.417189 717.618646,101.685297 716.542229,102.754919 C715.462137,103.820865 714.179988,104.651568 712.692107,105.243351 C711.207899,105.838811 709.587762,106.132865 707.84639,106.132865 C706.097671,106.132865 704.488555,105.838811 703.011695,105.243351 C701.534835,104.651568 700.25636,103.820865 699.179942,102.754919 C698.099851,101.685297 697.262229,100.417189 696.659729,98.9358919 C696.057229,97.4619459 695.755979,95.8372973 695.755979,94.0692973 C695.755979,92.2792432 696.057229,90.6435676 696.659729,89.1696216 C697.262229,87.692 698.099851,86.4312432 699.179942,85.3873514 C700.25636,84.3397838 701.534835,83.5237838 703.011695,82.943027 C704.488555,82.3585946 706.097671,82.0682162 707.84639,82.0682162 C709.587762,82.0682162 711.207899,82.3585946 712.692107,82.943027 C714.179988,83.5237838 715.462137,84.3397838 716.542229,85.3873514 C717.618646,86.4312432 718.463616,87.692 719.077137,89.1696216 C719.690659,90.6435676 719.999256,92.2792432 719.999256,94.0692973" id="Fill-36" fill="#231F20"></path>
                <path d="M730.602521,92.6802595 L734.287323,92.6802595 C735.044122,92.6802595 735.74214,92.6140973 736.388726,92.481773 C737.035311,92.3531243 737.601073,92.1436108 738.086012,91.8532324 C738.570951,91.5628541 738.953024,91.1879351 739.235905,90.7211243 C739.515113,90.2579892 739.654716,89.6845838 739.654716,88.9898811 C739.654716,88.3025297 739.515113,87.721773 739.235905,87.2586378 C738.953024,86.7955027 738.581973,86.4242595 738.119076,86.1449081 C737.65618,85.8655568 737.108787,85.6670703 736.487918,85.5494486 C735.863375,85.4281514 735.205768,85.3693405 734.511424,85.3693405 L730.602521,85.3693405 L730.602521,92.6802595 Z M730.602521,105.552476 L727.402659,105.552476 L727.402659,82.6493405 L734.742872,82.6493405 C735.841332,82.6493405 736.884686,82.7669622 737.876607,82.9911784 C738.868527,83.2190703 739.73554,83.5756108 740.477643,84.0755027 C741.223421,84.5717189 741.811226,85.2223135 742.241058,86.0309622 C742.67089,86.8396108 742.887643,87.8283676 742.887643,88.9898811 C742.887643,90.6733405 742.36964,92.0296649 741.337308,93.0662054 C740.301302,94.1027459 738.964046,94.7570162 737.32554,95.0400432 L743.728939,105.552476 L739.849427,105.552476 L734.030159,95.359827 L730.602521,95.359827 L730.602521,105.552476 Z" id="Fill-38" fill="#231F20"></path>
                <path d="M754.654395,97.1094486 L763.221651,97.1094486 L758.956392,86.3691243 L754.654395,97.1094486 Z M751.226758,105.552476 L747.674212,105.552476 L757.597093,82.6493405 L760.510401,82.6493405 L770.337764,105.552476 L766.715416,105.552476 L764.386239,99.9250162 L753.52287,99.9250162 L751.226758,105.552476 Z" id="Fill-40" fill="#231F20"></path>
                <polygon id="Fill-42" fill="#231F20" points="782.397683 105.552108 779.19782 105.552108 779.19782 85.4645405 771.857607 85.4645405 771.857607 82.6526486 789.734223 82.6526486 789.734223 85.4645405 782.397683 85.4645405"></polygon>
                <mask id="mask-2" fill="white">
                    <use xlink:href="#path-1"></use>
                </mask>
                <g id="Clip-45"></g>
                <polygon id="Fill-44" fill="#231F20" mask="url(#mask-2)" points="795.810655 105.553946 799.010518 105.553946 799.010518 82.6544865 795.810655 82.6544865"></polygon>
                <polygon id="Fill-46" fill="#231F20" mask="url(#mask-2)" points="815.210788 101.413297 815.306306 101.413297 822.190971 82.6526486 825.651672 82.6526486 816.665605 105.552108 813.689843 105.552108 804.76623 82.6526486 808.32245 82.6526486"></polygon>
                <polygon id="Fill-47" fill="#231F20" mask="url(#mask-2)" points="834.605777 102.705665 846.567607 102.705665 846.567607 105.550638 831.405915 105.550638 831.405915 82.6511784 846.082668 82.6511784 846.082668 85.4667459 834.605777 85.4667459 834.605777 92.3218811 845.403018 92.3218811 845.403018 95.0712865 834.605777 95.0712865"></polygon>
                <path d="M868.196989,102.738011 L872.205084,102.738011 C873.586425,102.738011 874.861227,102.5432 876.036837,102.157254 C877.212447,101.767632 878.222736,101.20893 879.075053,100.473795 C879.92737,99.7423351 880.588651,98.8344432 881.066242,97.7574703 C881.54016,96.6804973 881.775282,95.4638486 881.775282,94.100173 C881.775282,92.6813622 881.54016,91.4279568 881.066242,90.3509838 C880.588651,89.2703351 879.92737,88.3734703 879.075053,87.6493622 C878.222736,86.9252541 877.212447,86.3775784 876.036837,85.9989838 C874.861227,85.6240649 873.586425,85.4329297 872.205084,85.4329297 L868.196989,85.4329297 L868.196989,102.738011 Z M864.997127,82.6504432 L872.855343,82.6504432 C874.317508,82.6504432 875.783346,82.8673081 877.249184,83.2973622 C878.715023,83.7310919 880.041258,84.4110919 881.227889,85.3373622 C882.410846,86.2636324 883.369703,87.4508757 884.104459,88.8917405 C884.835541,90.3399568 885.202919,92.0748757 885.202919,94.100173 C885.202919,96.0666595 884.835541,97.7611459 884.104459,99.1946595 C883.369703,100.631849 882.410846,101.815416 881.227889,102.756389 C880.041258,103.693686 878.715023,104.392065 877.249184,104.8552 C875.783346,105.322011 874.317508,105.553578 872.855343,105.553578 L864.997127,105.553578 L864.997127,82.6504432 Z" id="Fill-48" fill="#231F20" mask="url(#mask-2)"></path>
                <polygon id="Fill-49" fill="#231F20" mask="url(#mask-2)" points="895.836309 102.705665 907.798139 102.705665 907.798139 105.550638 892.636447 105.550638 892.636447 82.6511784 907.3132 82.6511784 907.3132 85.4667459 895.836309 85.4667459 895.836309 92.3218811 906.63355 92.3218811 906.63355 95.0712865 895.836309 95.0712865"></polygon>
                <path d="M926.485925,86.8903351 C926.03405,86.2617946 925.420529,85.7508757 924.641687,85.3539027 C923.86652,84.9532541 922.995834,84.7547676 922.022282,84.7547676 C921.507953,84.7547676 920.982602,84.8246054 920.453578,84.9642811 C919.928227,85.1076324 919.446962,85.3318486 919.01713,85.6442811 C918.587297,85.9567135 918.238288,86.3463351 917.966428,86.8094703 C917.694569,87.2726054 917.562312,87.8276324 917.562312,88.4745514 C917.562312,89.0994162 917.683547,89.6213622 917.933364,90.0403892 C918.179508,90.4630919 918.517495,90.8159568 918.936306,91.1063351 C919.358791,91.4040649 919.851078,91.6503351 920.424187,91.856173 C920.993623,92.0583351 921.603471,92.2678486 922.250056,92.4810378 C923.028898,92.7236324 923.811413,92.9919568 924.608623,93.2933622 C925.405834,93.5947676 926.129569,93.9954162 926.776154,94.4879568 C927.422739,94.984173 927.94809,95.6053622 928.363227,96.3478486 C928.771017,97.0940108 928.976748,98.0349838 928.976748,99.1817946 C928.976748,100.365362 928.752648,101.394551 928.311794,102.269362 C927.870941,103.144173 927.283136,103.864605 926.552053,104.434335 C925.817297,105.007741 924.972328,105.434119 924.013471,105.71347 C923.050941,105.992822 922.066367,106.132497 921.052404,106.132497 C919.608608,106.132497 918.212572,105.853146 916.867968,105.294443 C915.523364,104.732065 914.406535,103.901362 913.521154,102.802335 L916.008303,100.699849 C916.548349,101.501146 917.272084,102.144389 918.175834,102.640605 C919.079584,103.136822 920.064157,103.383092 921.118532,103.383092 C921.658578,103.383092 922.19495,103.309578 922.734995,103.158876 C923.275041,103.008173 923.763654,102.769254 924.208181,102.445795 C924.649035,102.126011 925.009066,101.718011 925.288273,101.232822 C925.56748,100.751308 925.710758,100.159524 925.710758,99.472173 C925.710758,98.7811459 925.563806,98.2040649 925.273578,97.7409297 C924.983349,97.2777946 924.586581,96.8844973 924.094294,96.5610378 C923.598334,96.2375784 923.02155,95.9619027 922.363944,95.7340108 C921.706337,95.5097946 921.011992,95.278227 920.28091,95.0393081 C919.54248,94.8224432 918.822419,94.5614703 918.11338,94.2490378 C917.400666,93.9366054 916.765102,93.5359568 916.203014,93.0507676 C915.644599,92.5655784 915.192724,91.9664432 914.847389,91.2533622 C914.502053,90.5439568 914.329386,89.6617946 914.329386,88.6032 C914.329386,87.4600649 914.560834,86.4786595 915.02373,85.6589838 C915.4903,84.8393081 916.0928,84.1629838 916.834904,83.6189838 C917.577008,83.0823351 918.421977,82.6890378 919.358791,82.4390919 C920.291931,82.1964973 921.236093,82.0678486 922.183928,82.0678486 C923.521184,82.0678486 924.77027,82.3067676 925.938532,82.7809297 C927.099447,83.2550919 928.036261,83.8946595 928.748974,84.6886054 L926.485925,86.8903351 Z" id="Fill-50" fill="#231F20" mask="url(#mask-2)"></path>
                <polygon id="Fill-51" fill="#231F20" mask="url(#mask-2)" points="936.538491 105.553946 939.738354 105.553946 939.738354 82.6544865 936.538491 82.6544865"></polygon>
                <path d="M965.602503,87.3747892 C964.915506,86.6176 964.033799,86.0147892 962.968402,85.5626811 C961.899332,85.110573 960.709027,84.8826811 959.397488,84.8826811 C958.056558,84.8826811 956.851558,85.1252757 955.77514,85.6141405 C954.695049,86.0956541 953.780277,86.7572757 953.027152,87.6026811 C952.270354,88.4407351 951.689896,89.4184649 951.282107,90.5248432 C950.870643,91.638573 950.668585,92.8184649 950.668585,94.0681946 C950.668585,95.3436541 950.870643,96.5382486 951.282107,97.6593297 C951.689896,98.7840865 952.270354,99.7581405 953.027152,100.588843 C953.780277,101.41587 954.70607,102.070141 955.808204,102.544303 C956.906665,103.018465 958.133707,103.253708 959.493006,103.253708 C960.569424,103.253708 961.561345,103.158141 962.465095,102.96333 C963.372518,102.768519 964.155034,102.489168 964.827335,102.125276 L964.827335,95.7516541 L959.750171,95.7516541 L959.750171,93.0353297 L967.994134,93.0353297 L967.994134,104.132195 C966.78546,104.775438 965.473921,105.271654 964.048494,105.617168 C962.626741,105.962681 961.076405,106.135438 959.397488,106.135438 C957.604683,106.135438 955.962503,105.837708 954.467274,105.242249 C952.968372,104.650465 951.678875,103.823438 950.602457,102.757492 C949.522366,101.68787 948.684744,100.416086 948.07857,98.9384649 C947.47607,97.4608432 947.17482,95.8398703 947.17482,94.0681946 C947.17482,92.2781405 947.479744,90.6461405 948.093265,89.1685189 C948.71046,87.6908973 949.562777,86.4301405 950.650216,85.3862486 C951.741329,84.3386811 953.027152,83.5226811 954.51136,82.9419243 C956.002915,82.3611676 957.615704,82.0707892 959.364424,82.0707892 C961.193966,82.0707892 962.825125,82.3391135 964.261573,82.8757622 C965.690674,83.4160865 966.884652,84.1401946 967.832488,85.0444108 L965.602503,87.3747892 Z" id="Fill-52" fill="#231F20" mask="url(#mask-2)"></path>
                <polygon id="Fill-53" fill="#231F20" mask="url(#mask-2)" points="992.664305 100.957514 992.730433 100.957514 992.730433 82.6526486 995.930296 82.6526486 995.930296 105.552108 991.885463 105.552108 979.795052 86.8576216 979.728924 86.8576216 979.728924 105.552108 976.529061 105.552108 976.529061 82.6526486 980.698802 82.6526486"></polygon>
                <path d="M1018.85064,92.7769297 L1022.24522,92.7769297 C1023.02406,92.7769297 1023.73677,92.7034162 1024.39438,92.5637405 C1025.05199,92.4240649 1025.61775,92.2108757 1026.09534,91.9204973 C1026.56926,91.6301189 1026.93296,91.244173 1027.1938,90.7700108 C1027.45096,90.2958486 1027.57955,89.7150919 1027.57955,89.0240649 C1027.57955,88.3330378 1027.44729,87.7559568 1027.17543,87.2928216 C1026.90357,86.8296865 1026.53987,86.4510919 1026.07697,86.1607135 C1025.61407,85.8703351 1025.05566,85.6644973 1024.41275,85.5468757 C1023.76616,85.4292541 1023.0608,85.3667676 1022.30767,85.3667676 L1018.85064,85.3667676 L1018.85064,92.7769297 Z M1015.65078,82.6504432 L1022.63096,82.6504432 C1023.86168,82.6504432 1024.98218,82.7754162 1025.99615,83.0253622 C1027.01011,83.2716324 1027.86978,83.6539027 1028.57882,84.172173 C1029.2952,84.6904432 1029.8426,85.3483892 1030.23202,86.1423351 C1030.61776,86.9436324 1030.81247,87.9029838 1030.81247,89.0240649 C1030.81247,90.1672 1030.60307,91.1486054 1030.18058,91.9646054 C1029.76177,92.7879568 1029.18132,93.4569297 1028.43554,93.9715243 C1027.69343,94.4897946 1026.80805,94.8720649 1025.78674,95.1220108 C1024.76176,95.3682811 1023.65962,95.4932541 1022.46932,95.4932541 L1018.85064,95.4932541 L1018.85064,105.553578 L1015.65078,105.553578 L1015.65078,82.6504432 Z" id="Fill-54" fill="#231F20" mask="url(#mask-2)"></path>
                <polygon id="Fill-55" fill="#231F20" mask="url(#mask-2)" points="1041.12294 102.705665 1051.33972 102.705665 1051.33972 105.550638 1037.92308 105.550638 1037.92308 82.6511784 1041.12294 82.6511784"></polygon>
                <path d="M1061.84527,97.1094486 L1070.41252,97.1094486 L1066.14726,86.3691243 L1061.84527,97.1094486 Z M1058.41763,105.552476 L1054.86508,105.552476 L1064.78796,82.6493405 L1067.70127,82.6493405 L1077.52863,105.552476 L1073.90629,105.552476 L1071.57711,99.9250162 L1060.71374,99.9250162 L1058.41763,105.552476 Z" id="Fill-56" fill="#231F20" mask="url(#mask-2)"></path>
                <polygon id="Fill-57" fill="#231F20" mask="url(#mask-2)" points="1089.58525 105.552108 1086.38538 105.552108 1086.38538 85.4645405 1079.04517 85.4645405 1079.04517 82.6526486 1096.92179 82.6526486 1096.92179 85.4645405 1089.58525 85.4645405"></polygon>
                <polygon id="Fill-58" fill="#231F20" mask="url(#mask-2)" points="1106.20359 105.552108 1103.00373 105.552108 1103.00373 82.6526486 1117.29474 82.6526486 1117.29474 85.4645405 1106.20359 85.4645405 1106.20359 92.5843243 1116.58202 92.5843243 1116.58202 95.3300541 1106.20359 95.3300541"></polygon>
                <path d="M1144.02847,94.0692973 C1144.02847,92.8195676 1143.82274,91.6396757 1143.41495,90.5259459 C1143.00348,89.4158919 1142.42303,88.4418378 1141.66623,87.6001081 C1140.9131,86.7583784 1140.00201,86.0967568 1138.93294,85.6115676 C1137.86754,85.1227027 1136.66621,84.8837838 1135.33263,84.8837838 C1134.01374,84.8837838 1132.82344,85.1227027 1131.75804,85.6115676 C1130.69265,86.0967568 1129.78522,86.7583784 1129.04312,87.6001081 C1128.30102,88.4418378 1127.72423,89.4158919 1127.31277,90.5259459 C1126.90498,91.6396757 1126.69925,92.8195676 1126.69925,94.0692973 C1126.69925,95.3447568 1126.90498,96.5393514 1127.31277,97.6604324 C1127.72423,98.7815135 1128.30469,99.7592432 1129.06149,100.58627 C1129.81461,101.416973 1130.71836,102.071243 1131.77641,102.545405 C1132.83079,103.019568 1134.01374,103.254811 1135.33263,103.254811 C1136.64417,103.254811 1137.84182,103.019568 1138.91824,102.545405 C1139.99466,102.071243 1140.9131,101.416973 1141.66623,100.58627 C1142.42303,99.7592432 1143.00348,98.7815135 1143.41495,97.6604324 C1143.82274,96.5393514 1144.02847,95.3447568 1144.02847,94.0692973 M1147.4855,94.0692973 C1147.4855,95.8372973 1147.1769,97.4619459 1146.56338,98.9358919 C1145.94986,100.417189 1145.10489,101.685297 1144.02847,102.754919 C1142.94838,103.820865 1141.66623,104.651568 1140.17835,105.243351 C1138.69414,105.838811 1137.074,106.132865 1135.33263,106.132865 C1133.58391,106.132865 1131.9748,105.838811 1130.49794,105.243351 C1129.02108,104.651568 1127.7426,103.820865 1126.66618,102.754919 C1125.58609,101.685297 1124.74847,100.417189 1124.14597,98.9358919 C1123.54347,97.4619459 1123.24222,95.8372973 1123.24222,94.0692973 C1123.24222,92.2792432 1123.54347,90.6435676 1124.14597,89.1696216 C1124.74847,87.692 1125.58609,86.4312432 1126.66618,85.3873514 C1127.7426,84.3397838 1129.02108,83.5237838 1130.49794,82.943027 C1131.9748,82.3585946 1133.58391,82.0682162 1135.33263,82.0682162 C1137.074,82.0682162 1138.69414,82.3585946 1140.17835,82.943027 C1141.66623,83.5237838 1142.94838,84.3397838 1144.02847,85.3873514 C1145.10489,86.4312432 1145.94986,87.692 1146.56338,89.1696216 C1147.1769,90.6435676 1147.4855,92.2792432 1147.4855,94.0692973" id="Fill-59" fill="#231F20" mask="url(#mask-2)"></path>
                <path d="M1158.09207,92.6802595 L1161.77687,92.6802595 C1162.53367,92.6802595 1163.23169,92.6140973 1163.87827,92.481773 C1164.52486,92.3531243 1165.09062,92.1436108 1165.57556,91.8532324 C1166.0605,91.5628541 1166.44257,91.1879351 1166.72545,90.7211243 C1167.00466,90.2579892 1167.14426,89.6845838 1167.14426,88.9898811 C1167.14426,88.3025297 1167.00466,87.721773 1166.72545,87.2586378 C1166.44257,86.7955027 1166.07152,86.4242595 1165.60862,86.1449081 C1165.14573,85.8655568 1164.59833,85.6670703 1163.97746,85.5494486 C1163.35292,85.4281514 1162.69532,85.3693405 1162.00097,85.3693405 L1158.09207,85.3693405 L1158.09207,92.6802595 Z M1158.09207,105.552476 L1154.89221,105.552476 L1154.89221,82.6493405 L1162.23242,82.6493405 C1163.33088,82.6493405 1164.37423,82.7669622 1165.36615,82.9911784 C1166.35807,83.2190703 1167.22509,83.5756108 1167.96719,84.0755027 C1168.71297,84.5717189 1169.30077,85.2223135 1169.73061,86.0309622 C1170.16044,86.8396108 1170.37719,87.8283676 1170.37719,88.9898811 C1170.37719,90.6733405 1169.85919,92.0296649 1168.82686,93.0662054 C1167.79085,94.1027459 1166.45359,94.7570162 1164.81509,95.0400432 L1171.21849,105.552476 L1167.33897,105.552476 L1161.51971,95.359827 L1158.09207,95.359827 L1158.09207,105.552476 Z" id="Fill-60" fill="#231F20" mask="url(#mask-2)"></path>
                <polygon id="Fill-61" fill="#231F20" mask="url(#mask-2)" points="1189.6098 100.247005 1189.67593 100.247005 1196.42834 82.6515459 1201.40998 82.6515459 1201.40998 105.551005 1198.21012 105.551005 1198.21012 86.4007351 1198.14399 86.4007351 1190.54661 105.551005 1188.51134 105.551005 1180.94702 86.4007351 1180.8809 86.4007351 1180.8809 105.551005 1177.77655 105.551005 1177.77655 82.6515459 1182.7582 82.6515459"></polygon>
                <path d="M10.2149466,119.683978 C9.85491616,119.184086 9.3956936,118.783438 8.83360518,118.478357 C8.27519055,118.176951 7.59554116,118.026249 6.80200457,118.026249 C6.39421494,118.026249 5.9864253,118.085059 5.56026677,118.213708 C5.14145579,118.335005 4.7630564,118.526141 4.41772104,118.783438 C4.07605945,119.040735 3.80052591,119.364195 3.58744665,119.753816 C3.37804116,120.143438 3.27150152,120.602897 3.27150152,121.13587 C3.27150152,121.665168 3.37436738,122.102573 3.57275152,122.444411 C3.77480945,122.789924 4.04299543,123.080303 4.38098323,123.322897 C4.71529726,123.565492 5.09002287,123.760303 5.52352896,123.914681 C5.9496875,124.072735 6.39421494,124.230789 6.86445884,124.385168 C7.4375686,124.572627 8.01435213,124.778465 8.60215701,124.991654 C9.18261433,125.212195 9.70429116,125.498897 10.1708613,125.848086 C10.6411052,126.197276 11.0195046,126.645708 11.3170808,127.178681 C11.6109832,127.722681 11.7579345,128.402681 11.7579345,129.229708 C11.7579345,130.053059 11.5999619,130.769816 11.2876905,131.368951 C10.9717454,131.971762 10.5639558,132.467978 10.0606479,132.853924 C9.55366616,133.243546 8.9805564,133.533924 8.33397104,133.717708 C7.69105945,133.905168 7.03712652,134.000735 6.37951982,134.000735 C5.87988567,134.000735 5.3839253,133.949276 4.88796494,133.850032 C4.38833079,133.743438 3.91073933,133.592735 3.45886433,133.390573 C3.00698933,133.192086 2.58817835,132.931114 2.19508384,132.622357 C1.80933689,132.309924 1.46400152,131.949708 1.1664253,131.545384 L2.6175686,130.472086 C2.9739253,131.06387 3.48090701,131.556411 4.12749238,131.953384 C4.77407774,132.350357 5.5345503,132.552519 6.40523628,132.552519 C6.82772104,132.552519 7.25387957,132.482681 7.69105945,132.350357 C8.13191311,132.218032 8.52133384,132.01587 8.87034299,131.74387 C9.22302591,131.47187 9.50958079,131.133708 9.73735518,130.736735 C9.96145579,130.339762 10.075343,129.872951 10.075343,129.34733 C10.075343,128.770249 9.96145579,128.288735 9.73735518,127.906465 C9.50958079,127.52787 9.21200457,127.204411 8.83360518,126.947114 C8.45887957,126.689816 8.03639482,126.476627 7.54778201,126.307546 C7.07019055,126.131114 6.56320884,125.958357 6.03051067,125.789276 C5.48679116,125.616519 4.94674543,125.425384 4.41772104,125.204843 C3.88869665,124.984303 3.41110518,124.701276 2.99229421,124.352086 C2.56980945,123.999222 2.23182165,123.569168 1.97465701,123.050897 C1.71749238,122.536303 1.58891006,121.904086 1.58891006,121.157924 C1.58891006,120.363978 1.74688262,119.676627 2.06650152,119.099546 C2.38612043,118.522465 2.8049314,118.048303 3.31926067,117.669708 C3.83358994,117.298465 4.40302591,117.022789 5.0275686,116.850032 C5.6484375,116.684627 6.26563262,116.596411 6.87548018,116.596411 C7.99598323,116.596411 8.95483994,116.794897 9.74837652,117.19187 C10.5419131,117.592519 11.1444131,118.063005 11.548529,118.607005 L10.2149466,119.683978 Z" id="Fill-62" fill="#231F20" mask="url(#mask-2)"></path>
                <path d="M27.1238887,133.999265 C25.8748034,133.999265 24.8534924,133.786076 24.056282,133.356022 C23.2590716,132.929643 22.6308552,132.385643 22.1606113,131.731373 C21.6940412,131.077103 21.3744223,130.364022 21.194407,129.59213 C21.0143918,128.820238 20.926221,128.088778 20.926221,127.405103 L20.926221,117.017643 L22.6088125,117.017643 L22.6088125,127.213968 C22.6088125,127.886616 22.6859619,128.540886 22.8402607,129.169427 C22.9982332,129.801643 23.2480503,130.364022 23.604407,130.856562 C23.9534162,131.341751 24.4163125,131.746076 24.993096,132.047481 C25.5698796,132.352562 26.2789192,132.503265 27.1238887,132.503265 C27.9651845,132.503265 28.6705503,132.352562 29.2510076,132.047481 C29.8241174,131.746076 30.2870137,131.341751 30.6396966,130.856562 C30.9923796,130.364022 31.2421966,129.801643 31.3964954,129.169427 C31.554468,128.540886 31.6316174,127.886616 31.6316174,127.213968 L31.6316174,117.017643 L33.3215564,117.017643 L33.3215564,127.405103 C33.3215564,128.088778 33.2260381,128.820238 33.0460229,129.59213 C32.8660076,130.364022 32.5463887,131.077103 32.0798186,131.731373 C31.6132485,132.385643 30.9740107,132.929643 30.1731265,133.356022 C29.3685686,133.786076 28.3509314,133.999265 27.1238887,133.999265" id="Fill-63" fill="#231F20" mask="url(#mask-2)"></path>
                <path d="M44.9365808,124.38627 L47.8572363,124.38627 C49.2165351,124.38627 50.2598887,124.14 50.990971,123.651135 C51.7257271,123.158595 52.0931052,122.423459 52.0931052,121.438378 C52.0931052,120.894378 51.9902393,120.434919 51.7845076,120.06 C51.5861235,119.685081 51.3032424,119.38 50.9468857,119.144757 C50.5868552,118.913189 50.1533491,118.740432 49.635346,118.633838 C49.1246905,118.519892 48.5515808,118.468432 47.9307119,118.468432 L44.9365808,118.468432 L44.9365808,124.38627 Z M44.9365808,133.579135 L43.2539893,133.579135 L43.2539893,117.016541 L48.1180747,117.016541 C48.9263064,117.016541 49.6794314,117.097405 50.3701021,117.251784 C51.0644466,117.406162 51.6669466,117.659784 52.1739284,118.012649 C52.6772363,118.361838 53.0740046,118.817622 53.3532119,119.38 C53.6324192,119.938703 53.7720229,120.62973 53.7720229,121.438378 C53.7720229,122.044865 53.6654832,122.603568 53.4450564,123.096108 C53.2283034,123.596 52.9344009,124.02973 52.5596753,124.397297 C52.1886235,124.764865 51.7404223,125.058919 51.226093,125.275784 C50.7117637,125.492649 50.1533491,125.632324 49.5435015,125.694811 L54.3818704,133.579135 L52.3282271,133.579135 L47.7433491,125.838162 L44.9365808,125.838162 L44.9365808,133.579135 Z" id="Fill-64" fill="#231F20" mask="url(#mask-2)"></path>
                <polygon id="Fill-65" fill="#231F20" mask="url(#mask-2)" points="64.5791829 133.579135 62.8929177 133.579135 62.8929177 117.016541 72.878253 117.016541 72.878253 118.512541 64.5791829 118.512541 64.5791829 124.246595 72.294122 124.246595 72.294122 125.742595 64.5791829 125.742595"></polygon>
                <path d="M83.9811524,127.685189 L91.2772805,127.685189 L87.6292165,118.885622 L83.9811524,127.685189 Z M81.5527835,133.580973 L79.704872,133.580973 L86.8577226,117.018378 L88.4962287,117.018378 L95.6013201,133.580973 L93.7313659,133.580973 L91.9091707,129.228973 L83.352936,129.228973 L81.5527835,133.580973 Z" id="Fill-66" fill="#231F20" mask="url(#mask-2)"></path>
                <path d="M117.601387,130.890746 C117.32218,131.309773 116.984192,131.710422 116.587424,132.085341 C116.190655,132.460259 115.727759,132.787395 115.209756,133.074097 C114.688079,133.3608 114.111296,133.585016 113.479405,133.750422 C112.847515,133.915827 112.156845,134.000368 111.407393,134.000368 C110.161982,134.000368 109.008415,133.779827 107.946692,133.346097 C106.888643,132.908692 105.977546,132.305881 105.213399,131.533989 C104.449253,130.762097 103.850427,129.843178 103.427942,128.784584 C102.994436,127.725989 102.781357,126.5608 102.781357,125.300043 C102.781357,124.035611 102.99811,122.874097 103.438963,121.811827 C103.87247,120.753232 104.478643,119.834314 105.246463,119.066097 C106.021631,118.29053 106.932729,117.687719 107.98343,117.250314 C109.034131,116.816584 110.176677,116.596043 111.407393,116.596043 C112.013567,116.596043 112.616067,116.65853 113.196524,116.787178 C113.784329,116.912151 114.328049,117.092259 114.846052,117.323827 C115.364055,117.551719 115.830625,117.827395 116.249436,118.147178 C116.668247,118.470638 117.02093,118.83453 117.303811,119.238854 L115.896753,120.268043 C115.724085,120.003395 115.496311,119.738746 115.209756,119.474097 C114.923201,119.205773 114.58154,118.974205 114.188445,118.772043 C113.802698,118.566205 113.37654,118.408151 112.917317,118.279503 C112.458095,118.15453 111.962134,118.095719 111.43311,118.095719 C110.356692,118.095719 109.394162,118.286854 108.545518,118.676476 C107.696875,119.066097 106.97314,119.591719 106.381662,120.245989 C105.790183,120.911286 105.338308,121.675827 105.022363,122.543286 C104.710091,123.418097 104.555793,124.337016 104.555793,125.300043 C104.555793,126.259395 104.717439,127.178314 105.037058,128.053124 C105.356677,128.920584 105.812226,129.685124 106.403704,130.350422 C106.995183,131.004692 107.718918,131.530314 108.567561,131.919935 C109.416204,132.309557 110.371387,132.500692 111.43311,132.500692 C112.380945,132.500692 113.284695,132.309557 114.14436,131.916259 C115.004024,131.530314 115.716738,130.905449 116.297195,130.049016 L117.601387,130.890746 Z" id="Fill-67" fill="#231F20" mask="url(#mask-2)"></path>
                <polygon id="Fill-68" fill="#231F20" mask="url(#mask-2)" points="127.818905 132.0824 136.683738 132.0824 136.683738 133.5784 126.139988 133.5784 126.139988 117.015805 136.40453 117.015805 136.40453 118.515481 127.818905 118.515481 127.818905 124.198076 135.846116 124.198076 135.846116 125.697751 127.818905 125.697751"></polygon>
                <path d="M158.780793,132.0824 L162.120259,132.0824 C163.365671,132.0824 164.456784,131.887589 165.38625,131.497968 C166.312043,131.108346 167.079863,130.597427 167.686037,129.965211 C168.29221,129.332995 168.747759,128.616238 169.056357,127.800238 C169.357607,126.991589 169.511905,126.157211 169.511905,125.297103 C169.511905,124.44067 169.357607,123.602616 169.056357,122.797643 C168.747759,121.985319 168.29221,121.264886 167.686037,120.63267 C167.079863,120.000454 166.312043,119.485859 165.38625,119.099914 C164.456784,118.710292 163.365671,118.515481 162.120259,118.515481 L158.780793,118.515481 L158.780793,132.0824 Z M157.094527,117.015805 L162.586829,117.015805 C163.615488,117.015805 164.651494,117.188562 165.6875,117.5304 C166.723506,117.875914 167.66032,118.390508 168.497942,119.088886 C169.324543,119.779914 170.000518,120.647373 170.511174,121.683914 C171.032851,122.720454 171.286341,123.9224 171.286341,125.297103 C171.286341,126.686508 171.032851,127.89213 170.511174,128.924995 C170.000518,129.954184 169.324543,130.814292 168.497942,131.51267 C167.66032,132.203697 166.723506,132.721968 165.6875,133.067481 C164.651494,133.405643 163.615488,133.5784 162.586829,133.5784 L157.094527,133.5784 L157.094527,117.015805 Z" id="Fill-69" fill="#231F20" mask="url(#mask-2)"></path>
                <polygon id="Fill-70" fill="#231F20" mask="url(#mask-2)" points="182.111503 132.0824 190.972662 132.0824 190.972662 133.5784 180.428912 133.5784 180.428912 117.015805 190.693454 117.015805 190.693454 118.515481 182.111503 118.515481 182.111503 124.198076 190.13504 124.198076 190.13504 125.697751 182.111503 125.697751"></polygon>
                <path d="M207.920913,119.683978 C207.564556,119.184086 207.105334,118.783438 206.543245,118.478357 C205.984831,118.176951 205.305181,118.026249 204.507971,118.026249 C204.103855,118.026249 203.696066,118.085059 203.269907,118.213708 C202.847422,118.335005 202.469023,118.526141 202.127361,118.783438 C201.782026,119.040735 201.502819,119.364195 201.293413,119.753816 C201.084008,120.143438 200.977468,120.602897 200.977468,121.13587 C200.977468,121.665168 201.080334,122.102573 201.278718,122.444411 C201.480776,122.789924 201.752636,123.080303 202.083276,123.322897 C202.421264,123.565492 202.799663,123.760303 203.233169,123.914681 C203.659328,124.072735 204.103855,124.230789 204.570425,124.385168 C205.147209,124.572627 205.720319,124.778465 206.311797,124.991654 C206.892255,125.212195 207.413931,125.498897 207.880502,125.848086 C208.347072,126.197276 208.729145,126.645708 209.023047,127.178681 C209.320623,127.722681 209.471248,128.402681 209.471248,129.229708 C209.471248,130.053059 209.309602,130.769816 208.989983,131.368951 C208.681386,131.971762 208.269922,132.467978 207.766614,132.853924 C207.263306,133.243546 206.686523,133.533924 206.036264,133.717708 C205.397026,133.905168 204.743093,134.000735 204.08916,134.000735 C203.589526,134.000735 203.093566,133.949276 202.593931,133.850032 C202.094297,133.743438 201.616706,133.592735 201.164831,133.390573 C200.712956,133.192086 200.294145,132.931114 199.904724,132.622357 C199.515303,132.309924 199.173642,131.949708 198.876066,131.545384 L200.327209,130.472086 C200.683566,131.06387 201.186873,131.556411 201.829785,131.953384 C202.480044,132.350357 203.244191,132.552519 204.114877,132.552519 C204.533687,132.552519 204.959846,132.482681 205.4007,132.350357 C205.83788,132.218032 206.230974,132.01587 206.579983,131.74387 C206.928992,131.47187 207.219221,131.133708 207.443322,130.736735 C207.671096,130.339762 207.781309,129.872951 207.781309,129.34733 C207.781309,128.770249 207.671096,128.288735 207.443322,127.906465 C207.219221,127.52787 206.917971,127.204411 206.543245,126.947114 C206.16852,126.689816 205.742361,126.476627 205.257422,126.307546 C204.772483,126.131114 204.269175,125.958357 203.740151,125.789276 C203.196431,125.616519 202.652712,125.425384 202.127361,125.204843 C201.594663,124.984303 201.117072,124.701276 200.698261,124.352086 C200.27945,123.999222 199.941462,123.569168 199.684297,123.050897 C199.423459,122.536303 199.29855,121.904086 199.29855,121.157924 C199.29855,120.363978 199.452849,119.676627 199.776142,119.099546 C200.095761,118.522465 200.510898,118.048303 201.025227,117.669708 C201.539556,117.298465 202.108992,117.022789 202.733535,116.850032 C203.358078,116.684627 203.975273,116.596411 204.581447,116.596411 C205.70195,116.596411 206.660806,116.794897 207.454343,117.19187 C208.251553,117.592519 208.85038,118.063005 209.254495,118.607005 L207.920913,119.683978 Z" id="Fill-71" fill="#231F20" mask="url(#mask-2)"></path>
                <polygon id="Fill-72" fill="#231F20" mask="url(#mask-2)" points="218.725869 133.580973 220.40846 133.580973 220.40846 117.018378 218.725869 117.018378"></polygon>
                <path d="M242.997802,120.014422 C242.421018,119.404259 241.730348,118.933773 240.936811,118.595611 C240.143274,118.257449 239.232177,118.095719 238.199845,118.095719 C237.141796,118.095719 236.186613,118.286854 235.33797,118.680151 C234.489326,119.066097 233.769265,119.591719 233.174113,120.253341 C232.582634,120.914962 232.127085,121.683178 231.807466,122.554314 C231.487848,123.429124 231.326201,124.348043 231.326201,125.31107 C231.326201,126.277773 231.487848,127.193016 231.807466,128.064151 C232.127085,128.938962 232.582634,129.703503 233.174113,130.354097 C233.769265,131.008368 234.489326,131.530314 235.33797,131.919935 C236.186613,132.309557 237.141796,132.500692 238.199845,132.500692 C239.136659,132.500692 239.999997,132.401449 240.778838,132.195611 C241.554006,131.997124 242.185896,131.736151 242.670835,131.427395 L242.670835,126.39907 L238.809692,126.39907 L238.809692,124.899395 L244.349753,124.899395 L244.349753,132.38307 C243.449677,132.930746 242.472451,133.33507 241.429098,133.603395 C240.385744,133.868043 239.301979,134.000368 238.181476,134.000368 C236.93239,134.000368 235.778823,133.779827 234.720774,133.346097 C233.662726,132.908692 232.747954,132.305881 231.987482,131.533989 C231.215988,130.762097 230.628183,129.843178 230.198351,128.784584 C229.761171,127.725989 229.551765,126.5608 229.551765,125.296368 C229.551765,124.035611 229.768518,122.874097 230.205698,121.811827 C230.642878,120.753232 231.249052,119.834314 232.016872,119.066097 C232.79204,118.29053 233.703137,117.687719 234.757512,117.250314 C235.80454,116.816584 236.947085,116.596043 238.181476,116.596043 C239.504037,116.596043 240.657604,116.79453 241.638503,117.187827 C242.623076,117.5848 243.464372,118.136151 244.16239,118.841881 L242.997802,120.014422 Z" id="Fill-73" fill="#231F20" mask="url(#mask-2)"></path>
                <polygon id="Fill-74" fill="#231F20" mask="url(#mask-2)" points="266.027262 131.123784 266.075021 131.123784 266.075021 117.016541 267.757613 117.016541 267.757613 133.579135 265.648863 133.579135 256.01621 119.332216 255.972125 119.332216 255.972125 133.579135 254.289534 133.579135 254.289534 117.016541 256.390936 117.016541"></polygon>
                <path d="M1.84129878,89.5607135 L0.000734756098,89.5607135 L0.000734756098,0.458659459 L3.32917988,0.466010811 C14.2145915,0.502767568 24.5011768,0.557902703 28.3549726,16.4478486 C29.2403537,20.116173 30.1992104,27.1440649 26.6944238,33.0986595 C26.3748049,33.6426595 26.0074268,34.1829838 25.603311,34.7196324 C26.5878841,35.5172541 27.5981738,36.4177946 28.6084634,37.4175784 C33.0280213,41.7842811 36.0148049,46.3384432 37.4806433,50.9918486 C42.0728689,65.5364973 36.4887226,78.7615784 22.9030823,85.5137946 C17.352,88.2705514 10.6546982,89.5607135 1.84129878,89.5607135 Z M2.65320427,3.1124973 L2.65320427,86.8995243 C10.6436768,86.8296865 16.7201098,85.6314162 21.7274726,83.1429838 C34.0603537,77.0119568 39.1301707,64.996173 34.9641037,51.7931459 C33.6195,47.5587676 30.8604909,43.3611459 26.7495305,39.2995243 C25.7723049,38.3328216 24.8061006,37.4690378 23.861939,36.708173 C20.9449573,39.6376865 17.4291494,41.3579027 14.2623506,41.3579027 C12.6642561,41.3579027 11.1653537,40.9352 9.81340244,40.1118486 L9.81340244,40.1155243 L9.81340244,40.1118486 C9.80972866,40.1118486 9.80605488,40.1118486 9.8023811,40.1008216 L9.82442378,40.0677405 L9.79503354,40.1008216 L10.1844543,39.4171459 L9.73257927,40.0567135 C7.98018598,38.8363892 7.71934756,36.2854703 7.71934756,34.8593081 C7.70832622,33.7713081 8.71126829,30.7866595 10.6032652,30.2463351 L11.0551402,30.1544432 C15.1918171,29.3568216 19.277061,30.3308757 23.4835396,33.1464432 C23.8252012,32.6796324 24.1448201,32.2164973 24.4166799,31.7533622 C27.443875,26.6000649 26.573189,20.3403892 25.7833262,17.0690378 C22.4218171,3.18968649 13.9904909,3.16028108 3.31815854,3.1124973 L2.65320427,3.1124973 Z M11.2167866,37.8696865 C12.1499268,38.4173622 13.167564,38.7077405 14.2623506,38.7077405 C16.966253,38.7077405 19.7032195,37.0059027 21.6833872,35.1349838 C18.189622,32.8781189 14.908936,32.1099027 11.5474268,32.7531459 L11.209439,32.8156324 C10.992686,32.9810378 10.3718171,34.3447135 10.3607957,34.8556324 C10.3607957,36.3075243 10.6951098,37.4727135 11.2167866,37.8696865 Z" id="Fill-75" fill="#231F20" mask="url(#mask-2)"></path>
                <path d="M66.0501646,89.6254054 C59.3197988,89.6254054 54.8598293,88.8167568 52.4388079,87.148 C46.9538537,83.3694054 46.847314,76.54 46.7554695,70.5118919 C46.7407744,69.6003243 46.729753,68.6887568 46.7003628,67.8029189 C46.4027866,59.5473514 46.4101341,51.1227027 46.4505457,44.6939459 L49.0993415,44.7086486 C49.0589299,51.108 49.0479085,59.5105946 49.3381372,67.711027 C49.3785488,68.6152432 49.3895701,69.5451892 49.4042652,70.4788108 C49.4887622,76.120973 49.5769329,81.9616216 53.9413841,84.9683243 C55.2933354,85.9019459 58.5740213,87.0156757 66.3367195,86.9789189 L66.3440671,89.6254054 L66.0501646,89.6254054 Z" id="Fill-76" fill="#231F20" mask="url(#mask-2)"></path>
                <path d="M46.4505457,45.3268973 C46.4027866,37.9939243 46.479936,31.0873297 46.696689,22.2289514 C46.7150579,21.5085189 46.7224055,20.7733838 46.729753,20.0125189 C46.781186,14.0946811 46.847314,6.71392432 52.4388079,2.86916757 C54.9002409,1.17835676 59.3969482,0.336627027 66.3330457,0.395437838 L66.3220244,3.0456 L65.9987317,3.0456 C58.4601341,3.0456 55.2786402,4.12992432 53.9377104,5.05619459 C49.4777409,8.11803243 49.4263079,14.4475459 49.3785488,20.0382486 C49.3675274,20.8101405 49.3601799,21.5636541 49.3454848,22.2951135 C49.1250579,31.1240865 49.0479085,38.008627 49.0993415,45.3085189 L46.4505457,45.3268973 Z" id="Fill-77" fill="#231F20" mask="url(#mask-2)"></path>
                <path d="M66.6706662,89.6217297 L66.2812454,89.6217297 L66.288593,86.9715676 L66.6633186,86.9715676 C74.2827393,86.9715676 77.4752546,85.8872432 78.8198582,84.9683243 C83.125529,82.0057297 83.2320686,76.2349189 83.3386082,70.6442162 C83.3569771,69.6481081 83.3716723,68.663027 83.4157576,67.6963243 C83.7500716,59.9957838 83.7059863,52.2290811 83.6582271,44.7086486 L86.3106966,44.6939459 C86.3474345,52.2437838 86.3951936,60.0472432 86.0572058,67.8139459 C86.020468,68.7549189 86.0020991,69.7216216 85.9837302,70.703027 C85.869843,76.6576216 85.7449345,83.4171892 80.3224345,87.148 C77.8977393,88.8167568 73.434096,89.6217297 66.6706662,89.6217297" id="Fill-78" fill="#231F20" mask="url(#mask-2)"></path>
                <path d="M86.3095945,45.3268973 L83.657125,45.3085189 C83.7048841,38.0527351 83.624061,30.7344649 83.4109817,22.2951135 C83.3962866,21.5599784 83.388939,20.7844108 83.3815915,20.0014919 C83.3301585,14.4365189 83.2750518,8.11803243 78.8224299,5.05619459 C77.4778262,4.12992432 74.2485732,3.0456 66.4601585,3.0456 L66.1221707,3.0456 L66.1111494,0.395437838 L66.4711799,0.395437838 C73.3668659,0.395437838 77.8929634,1.20041081 80.3139848,2.86916757 C85.9091524,6.71392432 85.9716067,14.072627 86.0303872,19.9794378 C86.0377348,20.7513297 86.0414085,21.5048432 86.0597774,22.2252757 C86.2691829,30.6940324 86.3500061,38.0343568 86.3095945,45.3268973" id="Fill-79" fill="#231F20" mask="url(#mask-2)"></path>
                <path d="M112.241341,88.6204757 C111.278811,85.5880432 109.84971,72.1350703 108.189162,56.5465297 C106.286143,38.6129081 103.909207,16.2795027 102.351524,12.8390703 C99.5190396,6.61615135 94.4271799,2.88901622 89.136936,3.05074595 L89.0450915,0.404259459 C95.4815549,0.176367568 101.473491,4.52836757 104.754177,11.7473946 C106.37064,15.2980973 108.292027,32.437773 110.823262,56.2782054 C112.39564,71.0728 113.883521,85.0403676 114.765229,87.8155027 L112.241341,88.6204757 Z" id="Fill-80" fill="#231F20" mask="url(#mask-2)"></path>
                <polygon id="Fill-81" fill="#231F20" mask="url(#mask-2)" points="114.781393 88.8645405 112.23179 88.1367568 131.73589 19.8574054 134.28182 20.5851892"></polygon>
                <polygon id="Fill-82" fill="#231F20" mask="url(#mask-2)" points="151.494216 88.8752 131.743973 20.5848216 134.278881 19.8533622 154.036473 88.1327135"></polygon>
                <path d="M151.451233,88.5844541 C151.238154,85.3939676 153.056675,72.0880216 155.154404,56.6648865 C157.586447,38.8709405 160.595273,16.7102919 159.91195,12.9537514 C158.773078,6.6904 154.647422,2.79050811 149.147773,2.79050811 L149.15512,0.140345946 C155.911203,0.151372973 161.157361,4.99223784 162.512986,12.4795892 C163.222026,16.3537514 160.995715,33.3794811 157.781157,57.0251027 C155.786294,71.6653189 153.897971,85.4932108 154.089008,88.415373 L151.451233,88.5844541 Z" id="Fill-83" fill="#231F20" mask="url(#mask-2)"></path>
                <path d="M216.70382,89.1336 L214.426076,87.7772757 C215.862524,85.3439784 220.800085,71.5491676 226.027875,56.9420324 C235.348256,30.9035459 242.148424,12.2200865 244.753134,9.04797838 C247.266,5.97878919 254.936854,-3.37212973 263.967006,1.82895135 L264.63196,2.21857297 L264.63196,88.7035459 L261.983165,88.7035459 L261.983165,3.78073514 C257.350527,1.54592432 252.497463,3.76970811 246.795756,10.7277622 C244.286564,13.7932757 235.539293,38.2107892 228.518698,57.8388973 C223.026396,73.1995459 218.276198,86.4687351 216.70382,89.1336" id="Fill-84" fill="#231F20" mask="url(#mask-2)"></path>
                <path d="M262.292497,59.6888649 C259.584921,57.8841081 255.044128,52.9403243 250.253518,47.6988108 C244.559159,41.4979459 238.096979,34.448 234.713427,32.7792432 C227.872848,29.3829189 222.031537,32.3124324 218.328366,35.3669189 L216.645774,33.3195676 C222.736902,28.3059459 229.577482,27.2767568 235.889037,30.4047568 C239.713442,32.2977297 246.058061,39.219027 252.204296,45.9161081 C256.89204,51.0326486 261.318945,55.8588108 263.758335,57.4834595 L262.292497,59.6888649 Z" id="Fill-85" fill="#231F20" mask="url(#mask-2)"></path>
                <path d="M184.120326,89.3203243 C181.214366,89.3203243 177.819793,89.2284324 173.984366,89.0667027 C172.485463,89.0152432 171.287811,88.9601081 170.611835,88.9601081 L170.615509,86.3172973 C171.317201,86.3172973 172.547918,86.3650811 174.094579,86.4275676 C178.907232,86.6260541 191.695662,87.1296216 193.775021,85.6924324 C198.584,82.3622703 198.77871,74.8749189 198.933009,68.8615135 L198.966073,67.7147027 C199.109351,63.2450811 199.010159,58.6357838 198.903619,53.7544865 C198.848512,50.960973 198.782384,48.0865946 198.764015,45.1166486 L201.409137,45.1056216 C201.427506,48.0571892 201.493634,50.9205405 201.545067,53.6993514 C201.651607,58.6137297 201.754473,63.2597838 201.607521,67.8029189 L201.581805,68.9203243 C201.416485,75.1983784 201.18871,83.7810811 195.281271,87.8684324 C193.723588,88.9380541 189.873466,89.3203243 184.120326,89.3203243" id="Fill-86" fill="#231F20" mask="url(#mask-2)"></path>
                <path d="M201.416485,45.1872216 L198.764015,45.1688432 C198.782384,41.7394378 198.745646,38.0527351 198.708909,34.4358703 C198.679518,32.6347892 198.661149,30.8484108 198.650128,29.1245189 L201.29525,29.1024649 C201.306271,30.8300324 201.335662,32.6090595 201.346683,34.3991135 C201.394442,38.0343568 201.434854,41.7394378 201.416485,45.1872216" id="Fill-87" fill="#231F20" mask="url(#mask-2)"></path>
                <path d="M198.650495,29.1311351 C198.628453,24.2351351 198.595389,17.5380541 199.17952,10.8483243 L199.252995,9.88897297 C199.557919,6.01481081 199.973056,0.714486486 204.664474,0.280756757 L204.914291,2.91989189 C202.618178,3.12940541 202.199367,6.16183784 201.894444,10.0984865 L201.809947,11.0725405 C201.244184,17.6446486 201.277248,24.2755676 201.295617,29.1201081 L198.650495,29.1311351 Z" id="Fill-88" fill="#231F20" mask="url(#mask-2)"></path>
                <path d="M179.158518,35.0860973 C169.896918,30.4032865 170.209189,15.4837189 170.425942,5.60717838 C170.455332,4.16631351 170.488396,2.82469189 170.477375,1.61907027 L173.126171,1.61907027 C173.126171,2.83204324 173.104128,4.20307027 173.06739,5.66598919 C172.87268,14.8772324 172.57143,28.7859892 180.352497,32.7263135 L179.158518,35.0860973 Z" id="Fill-89" fill="#231F20" mask="url(#mask-2)"></path>
                <path d="M192.261056,37.5521081 C188.106011,37.5521081 183.763602,37.1477838 178.998709,35.0526486 L180.064105,32.6267027 C185.795203,35.1482162 190.798892,34.9864865 196.085462,34.8247568 C197.374959,34.7843243 198.649761,34.7402162 199.942931,34.7402162 L199.946605,37.3903784 C198.679151,37.3903784 197.422718,37.4308108 196.173633,37.4712432 C194.887809,37.508 193.579944,37.5521081 192.261056,37.5521081" id="Fill-90" fill="#231F20" mask="url(#mask-2)"></path>
                <path d="M200.189809,37.4120649 L199.81141,34.7949838 C205.105328,34.0341189 208.419078,31.7074162 210.546197,27.2745514 L212.93048,28.4250378 C210.417614,33.670227 206.369108,36.5299027 200.189809,37.4120649" id="Fill-91" fill="#231F20" mask="url(#mask-2)"></path>
                <path d="M212.588819,29.0881297 L210.164123,28.0332108 C211.031136,26.0409946 211.872431,23.8649946 212.122248,21.4831568 C212.577797,17.1532108 212.46391,13.2569946 211.762218,8.83883243 C211.347081,6.26953514 210.487416,4.50888649 209.216288,3.60834595 C207.989245,2.74456216 206.850373,2.80704865 205.138392,2.90629189 L204.804078,2.92467027 L204.653453,0.281859459 L204.976745,0.259805405 C206.920175,0.153210811 208.764413,0.0392648649 210.751928,1.44337297 C212.625556,2.77029189 213.837904,5.11904865 214.366928,8.41980541 C215.120053,13.0768865 215.230267,17.1899676 214.756349,21.7625081 C214.46612,24.5045622 213.544002,26.9011027 212.588819,29.0881297" id="Fill-92" fill="#231F20" mask="url(#mask-2)"></path>
                <polygon id="Fill-93" fill="#231F20" mask="url(#mask-2)" points="393.802082 90.178227 391.20472 87.5795243 459.933805 18.8186595 462.531168 21.4173622"></polygon>
                <polygon id="Fill-94" fill="#231F20" mask="url(#mask-2)" points="459.933805 90.178227 391.20472 21.4173622 393.802082 18.8186595 462.531168 87.5795243"></polygon>
            </g>
        </g>
    </g>
</svg>